<?xml version="1.0" encoding="utf-8"?>
<!-- Generator: Adobe Illustrator 24.0.0, SVG Export Plug-In . SVG Version: 6.00 Build 0)  -->
<svg version="1.1" id="Layer_1" xmlns="http://www.w3.org/2000/svg" xmlns:xlink="http://www.w3.org/1999/xlink" x="0px" y="0px"
	 viewBox="0 0 960 540" style="enable-background:new 0 0 960 540;" xml:space="preserve">
<style type="text/css">
	.st0{clip-path:url(#SVGID_2_);fill:#FFFFFF;}
	.st1{fill:#FFFFFF;}
	.st2{fill:#FFF2CC;}
	.st3{fill:none;stroke:#70AD47;stroke-miterlimit:8;}
	.st4{font-family:'Helvetica';}
	.st5{font-size:16px;}
	.st6{letter-spacing:-1;}
	.st7{fill:#E2F0D9;}
	.st8{fill:#8FAADC;}
	.st9{fill:none;stroke:#385723;stroke-width:4.25;stroke-linejoin:round;stroke-miterlimit:10;}
	.st10{fill:none;stroke:#2F528F;stroke-width:4;stroke-miterlimit:8;}
	.st11{fill:none;stroke:#00B0F0;stroke-width:4;stroke-miterlimit:8;}
	.st12{fill:none;stroke:#5B9BD5;stroke-width:4;stroke-miterlimit:8;}
	.st13{fill:none;stroke:#0070C0;stroke-width:4;stroke-miterlimit:8;}
	.st14{fill:#A9D18E;}
	.st15{fill:none;stroke:#548235;stroke-miterlimit:8;}
	.st16{fill:#C55A11;}
	.st17{fill:none;stroke:#ED7D31;stroke-width:4;stroke-linejoin:round;stroke-miterlimit:10;}
	.st18{fill:#7F6000;}
	.st19{fill:none;stroke:#FFC000;stroke-miterlimit:8;}
	.st20{fill:none;stroke:#FFC000;stroke-width:4;stroke-linejoin:round;stroke-miterlimit:10;}
	.st21{fill:none;stroke:#C00000;stroke-width:4;stroke-linejoin:round;stroke-miterlimit:10;}
	.st22{fill:none;stroke:#4472C4;stroke-width:4;stroke-miterlimit:8;}
	.st23{fill:#4472C4;}
	.st24{fill:#F4B183;}
</style>
<g>
	<defs>
		<rect id="SVGID_1_" width="959.76" height="540"/>
	</defs>
	<clipPath id="SVGID_2_">
		<use xlink:href="#SVGID_1_"  style="overflow:visible;"/>
	</clipPath>
	<rect class="st0" width="959.76" height="540"/>
</g>
<rect class="st1" width="960" height="540"/>
<rect x="219.85" y="367.11" class="st2" width="456.69" height="124.55"/>
<rect x="219.85" y="367.11" class="st3" width="456.69" height="124.55"/>
<text transform="matrix(1 0 0 1 227.0479 483.8398)"><tspan x="0" y="0" class="st4 st5 st6">A</tspan><tspan x="9.46" y="0" class="st4 st5 st6">T</tspan><tspan x="18.03" y="0" class="st4 st5">AC</tspan><tspan x="40.19" y="0" class="st4 st5"> r</tspan><tspan x="50.06" y="0" class="st4 st5">ead</tspan><tspan x="76.71" y="0" class="st4 st5">s</tspan></text>
<rect x="220.4" y="243.29" class="st7" width="456.69" height="124.55"/>
<rect x="220.4" y="243.29" class="st3" width="456.69" height="124.55"/>
<text transform="matrix(1 0 0 1 227.5981 261.8398)"><tspan x="0" y="0" class="st4 st5">Treat as Hi</tspan><tspan x="77.71" y="0" class="st4 st5">C reads</tspan></text>
<path class="st8" d="M798.7,180.74l1.08,7.13l4.84-12.51l-12.91,3.64L798.7,180.74z M797.33,184.69l2.72-2.48l-2.69-2.96l-2.72,2.48
	L797.33,184.69z M785.5,195.46l8.87-8.08l-2.69-2.96l-8.87,8.08L785.5,195.46z M773.67,206.23l8.87-8.08l-2.69-2.96l-8.87,8.08
	L773.67,206.23z M761.83,217l8.87-8.08l-2.69-2.96l-8.87,8.08L761.83,217z M750,227.77l8.87-8.08l-2.69-2.96l-8.87,8.08L750,227.77z
	 M738.17,238.54l8.87-8.08l-2.69-2.96l-8.87,8.08L738.17,238.54z M726.34,249.31l8.87-8.08l-2.69-2.96l-8.87,8.08L726.34,249.31z
	 M714.5,260.08l8.87-8.08l-2.69-2.96l-8.87,8.08L714.5,260.08z M702.67,270.85l8.87-8.08l-2.69-2.96l-8.87,8.08L702.67,270.85z
	 M690.84,281.62l8.87-8.08l-2.69-2.96l-8.87,8.08L690.84,281.62z M679.01,292.39l8.87-8.08l-2.69-2.96l-8.87,8.08L679.01,292.39z
	 M667.17,303.16l8.87-8.08l-2.69-2.96l-8.87,8.08L667.17,303.16z M655.34,313.93l8.87-8.08l-2.69-2.96l-8.87,8.08L655.34,313.93z
	 M643.51,324.7l8.87-8.08l-2.69-2.96l-8.87,8.08L643.51,324.7z M631.68,335.47l8.87-8.08l-2.69-2.96l-8.87,8.08L631.68,335.47z
	 M619.84,346.24l8.87-8.08l-2.69-2.96l-8.87,8.08L619.84,346.24z M608.01,357.01l8.87-8.08l-2.69-2.96l-8.87,8.08L608.01,357.01z
	 M596.18,367.78l8.87-8.08l-2.69-2.96l-8.87,8.08L596.18,367.78z M584.35,378.55l8.87-8.08l-2.69-2.96l-8.87,8.08L584.35,378.55z
	 M572.51,389.32l8.87-8.08l-2.69-2.96l-8.87,8.08L572.51,389.32z M560.68,400.09l8.87-8.08l-2.69-2.96l-8.87,8.08L560.68,400.09z"/>
<ellipse transform="matrix(0.1602 -0.9871 0.9871 0.1602 152.8186 335.2295)" class="st9" cx="273.42" cy="77.81" rx="42.97" ry="42.97"/>
<text transform="matrix(1 0 0 1 256.042 83.2798)"><tspan x="0" y="0" class="st4 st5">f</tspan><tspan x="4.49" y="0" class="st4 st5">a</tspan><tspan x="13.38" y="0" class="st4 st5">s</tspan><tspan x="21.38" y="0" class="st4 st5">t</tspan><tspan x="25.87" y="0" class="st4 st5">q</tspan></text>
<path class="st10" d="M351.53,159.77c0-5.67,4.59-10.26,10.26-10.26h120c5.67,0,10.26,4.59,10.26,10.26v41.03
	c0,5.67-4.59,10.26-10.26,10.26h-120c-5.67,0-10.26-4.59-10.26-10.26V159.77z"/>
<text transform="matrix(1 0 0 1 370.665 176.1602)"><tspan x="0" y="0" class="st4 st5">Q</tspan><tspan x="12.49" y="0" class="st4 st5">ua</tspan><tspan x="30.26" y="0" class="st4 st5">li</tspan><tspan x="37.27" y="0" class="st4 st5">t</tspan><tspan x="41.76" y="0" class="st4 st5">y</tspan><tspan x="49.76" y="0" class="st4 st5"> </tspan><tspan x="54.26" y="0" class="st4 st5">c</tspan><tspan x="62.26" y="0" class="st4 st5">on</tspan><tspan x="80.02" y="0" class="st4 st5">t</tspan><tspan x="84.52" y="0" class="st4 st5">r</tspan><tspan x="89.88" y="0" class="st4 st5">o</tspan><tspan x="98.76" y="0" class="st4 st5">l</tspan></text>
<text transform="matrix(1 0 0 1 396.8501 195.1201)"><tspan x="0" y="0" class="st4 st5">f</tspan><tspan x="4.49" y="0" class="st4 st5">a</tspan><tspan x="13.38" y="0" class="st4 st5">s</tspan><tspan x="21.38" y="0" class="st4 st5">tQ</tspan><tspan x="38.36" y="0" class="st4 st5">C</tspan></text>
<path class="st11" d="M47.98,159.77c0-5.67,4.59-10.26,10.26-10.26h120c5.67,0,10.26,4.59,10.26,10.26v41.03
	c0,5.67-4.59,10.26-10.26,10.26h-120c-5.67,0-10.26-4.59-10.26-10.26V159.77z"/>
<text transform="matrix(1 0 0 1 80.2837 176.1602)"><tspan x="0" y="0" class="st4 st5">T</tspan><tspan x="9.17" y="0" class="st4 st5">r</tspan><tspan x="14.53" y="0" class="st4 st5">i</tspan><tspan x="18.03" y="0" class="st4 st5">m</tspan><tspan x="31.39" y="0" class="st4 st5"> </tspan><tspan x="35.89" y="0" class="st4 st5">r</tspan><tspan x="41.25" y="0" class="st4 st5">ead</tspan><tspan x="67.89" y="0" class="st4 st5">s</tspan></text>
<text transform="matrix(1 0 0 1 87.5537 195.1201)"><tspan x="0" y="0" class="st4 st5">c</tspan><tspan x="8" y="0" class="st4 st5">u</tspan><tspan x="16.88" y="0" class="st4 st5">t</tspan><tspan x="21.38" y="0" class="st4 st5">adap</tspan><tspan x="56.91" y="0" class="st4 st5">t</tspan></text>
<path class="st12" d="M47.98,253.55c0-5.67,4.59-10.26,10.26-10.26h120c5.67,0,10.26,4.59,10.26,10.26v41.03
	c0,5.67-4.59,10.26-10.26,10.26h-120c-5.67,0-10.26-4.59-10.26-10.26V253.55z"/>
<text transform="matrix(1 0 0 1 80.4287 269.7598)"><tspan x="0" y="0" class="st4 st5">M</tspan><tspan x="13.36" y="0" class="st4 st5">ap</tspan><tspan x="31.12" y="0" class="st4 st5"> </tspan><tspan x="35.62" y="0" class="st4 st5">r</tspan><tspan x="40.98" y="0" class="st4 st5">ead</tspan><tspan x="67.63" y="0" class="st4 st5">s</tspan></text>
<text transform="matrix(1 0 0 1 83.5537 288.96)"><tspan x="0" y="0" class="st4 st5">b</tspan><tspan x="8.88" y="0" class="st4 st5">w</tspan><tspan x="20.39" y="0" class="st4 st5">a</tspan><tspan x="29.27" y="0" class="st4 st5"> </tspan><tspan x="33.76" y="0" class="st4 st5">m</tspan><tspan x="47.12" y="0" class="st4 st5">e</tspan><tspan x="56.01" y="0" class="st4 st5">m</tspan></text>
<path class="st13" d="M47.98,347.32c0-5.67,4.59-10.26,10.26-10.26h120c5.67,0,10.26,4.59,10.26,10.26v41.03
	c0,5.67-4.59,10.26-10.26,10.26h-120c-5.67,0-10.26-4.59-10.26-10.26V347.32z"/>
<text transform="matrix(1 0 0 1 77.8037 363.6006)"><tspan x="0" y="0" class="st4 st5">P</tspan><tspan x="10.64" y="0" class="st4 st5">a</tspan><tspan x="19.52" y="0" class="st4 st5">r</tspan><tspan x="24.88" y="0" class="st4 st5">s</tspan><tspan x="32.88" y="0" class="st4 st5">e</tspan><tspan x="41.76" y="0" class="st4 st5"> </tspan><tspan x="46.26" y="0" class="st4 st5">pa</tspan><tspan x="64.02" y="0" class="st4 st5">i</tspan><tspan x="67.53" y="0" class="st4 st5">r</tspan><tspan x="72.89" y="0" class="st4 st5">s</tspan></text>
<text transform="matrix(1 0 0 1 88.0537 382.5605)"><tspan x="0" y="0" class="st4 st5">pa</tspan><tspan x="17.76" y="0" class="st4 st5">i</tspan><tspan x="21.27" y="0" class="st4 st5">r</tspan><tspan x="26.63" y="0" class="st4 st5">t</tspan><tspan x="31.12" y="0" class="st4 st5">oo</tspan><tspan x="48.89" y="0" class="st4 st5">l</tspan><tspan x="52.4" y="0" class="st4 st5">s</tspan></text>
<path class="st14" d="M252.08,285.77c0-5.67,4.59-10.26,10.26-10.26h160.45c5.67,0,10.26,4.59,10.26,10.26v41.03
	c0,5.67-4.59,10.26-10.26,10.26H262.33c-5.67,0-10.26-4.59-10.26-10.26V285.77z"/>
<path class="st15" d="M252.08,285.78c0-5.67,4.59-10.26,10.26-10.26h160.45c5.67,0,10.26,4.59,10.26,10.26v41.03
	c0,5.67-4.59,10.26-10.26,10.26H262.33c-5.67,0-10.26-4.59-10.26-10.26V285.78z"/>
<text transform="matrix(1 0 0 1 305.2461 302.1602)"><tspan x="0" y="0" class="st16 st4 st5">F</tspan><tspan x="9.76" y="0" class="st16 st4 st5">il</tspan><tspan x="16.77" y="0" class="st16 st4 st5">t</tspan><tspan x="21.26" y="0" class="st16 st4 st5">e</tspan><tspan x="30.15" y="0" class="st16 st4 st5">r </tspan><tspan x="40.02" y="0" class="st16 st4 st5">pa</tspan><tspan x="57.78" y="0" class="st16 st4 st5">i</tspan><tspan x="61.29" y="0" class="st16 st4 st5">r</tspan><tspan x="66.66" y="0" class="st16 st4 st5">s</tspan></text>
<text transform="matrix(1 0 0 1 312.3711 321.1201)"><tspan x="0" y="0" class="st16 st4 st5">pa</tspan><tspan x="17.76" y="0" class="st16 st4 st5">i</tspan><tspan x="21.27" y="0" class="st16 st4 st5">r</tspan><tspan x="26.63" y="0" class="st16 st4 st5">t</tspan><tspan x="31.12" y="0" class="st16 st4 st5">oo</tspan><tspan x="48.89" y="0" class="st16 st4 st5">l</tspan><tspan x="52.4" y="0" class="st16 st4 st5">s</tspan></text>
<path class="st14" d="M471.37,285.78c0-5.67,4.59-10.26,10.26-10.26h155.42c5.67,0,10.26,4.59,10.26,10.26v41.03
	c0,5.67-4.59,10.26-10.26,10.26H481.62c-5.67,0-10.26-4.59-10.26-10.26V285.78z"/>
<path class="st15" d="M471.37,285.78c0-5.67,4.59-10.26,10.26-10.26h155.42c5.67,0,10.26,4.59,10.26,10.26v41.03
	c0,5.67-4.59,10.26-10.26,10.26H481.62c-5.67,0-10.26-4.59-10.26-10.26V285.78z"/>
<text transform="matrix(1 0 0 1 485.501 302.1602)"><tspan x="0" y="0" class="st16 st4 st5">F</tspan><tspan x="9.76" y="0" class="st16 st4 st5">i</tspan><tspan x="13.26" y="0" class="st16 st4 st5">nd</tspan><tspan x="31.03" y="0" class="st16 st4 st5"> </tspan><tspan x="35.25" y="0" class="st16 st4 st5 st6">T</tspan><tspan x="43.82" y="0" class="st16 st4 st5">A</tspan><tspan x="54.46" y="0" class="st16 st4 st5">D</tspan><tspan x="65.97" y="0" class="st16 st4 st5">s</tspan><tspan x="73.97" y="0" class="st16 st4 st5"> </tspan><tspan x="78.46" y="0" class="st16 st4 st5">and</tspan><tspan x="105.11" y="0" class="st16 st4 st5"> </tspan><tspan x="109.6" y="0" class="st16 st4 st5">l</tspan><tspan x="113.11" y="0" class="st16 st4 st5">oop</tspan><tspan x="139.76" y="0" class="st16 st4 st5">s</tspan></text>
<text transform="matrix(1 0 0 1 536.7109 321.1201)"><tspan x="0" y="0" class="st16 st4 st5">M</tspan><tspan x="13.36" y="0" class="st16 st4 st5">AP</tspan><tspan x="34.61" y="0" class="st16 st4 st5">S</tspan></text>
<path class="st17" d="M714.14,235.69c0-5.67,4.59-10.26,10.26-10.26h160.45c5.67,0,10.26,4.59,10.26,10.26v41.03
	c0,5.67-4.59,10.26-10.26,10.26H724.39c-5.67,0-10.26-4.59-10.26-10.26V235.69z"/>
<text transform="matrix(1 0 0 1 766.4316 252)"><tspan x="0" y="0" class="st4 st5">A</tspan><tspan x="10.64" y="0" class="st4 st5">nno</tspan><tspan x="37.29" y="0" class="st4 st5">t</tspan><tspan x="41.78" y="0" class="st4 st5">a</tspan><tspan x="50.66" y="0" class="st4 st5">t</tspan><tspan x="55.16" y="0" class="st4 st5">i</tspan><tspan x="58.66" y="0" class="st4 st5">o</tspan><tspan x="67.54" y="0" class="st4 st5">n</tspan></text>
<text transform="matrix(1 0 0 1 750.9316 270.96)"><tspan x="0" y="0" class="st4 st5">C</tspan><tspan x="11.51" y="0" class="st4 st5">h</tspan><tspan x="20.39" y="0" class="st4 st5">I</tspan><tspan x="24.88" y="0" class="st4 st5">P</tspan><tspan x="35.52" y="0" class="st4 st5">pea</tspan><tspan x="62.17" y="0" class="st4 st5">k</tspan><tspan x="70.17" y="0" class="st4 st5">A</tspan><tspan x="80.81" y="0" class="st4 st5">nn</tspan><tspan x="98.57" y="0" class="st4 st5">o</tspan></text>
<path class="st18" d="M471.37,408.87c0-5.67,4.59-10.26,10.26-10.26h155.42c5.67,0,10.26,4.59,10.26,10.26v41.03
	c0,5.67-4.59,10.26-10.26,10.26H481.62c-5.67,0-10.26-4.59-10.26-10.26V408.87z"/>
<path class="st19" d="M471.37,408.87c0-5.67,4.59-10.26,10.26-10.26h155.42c5.67,0,10.26,4.59,10.26,10.26v41.03
	c0,5.67-4.59,10.26-10.26,10.26H481.62c-5.67,0-10.26-4.59-10.26-10.26V408.87z"/>
<text transform="matrix(1 0 0 1 522.084 425.2803)"><tspan x="0" y="0" class="st1 st4 st5">C</tspan><tspan x="11.51" y="0" class="st1 st4 st5">a</tspan><tspan x="20.39" y="0" class="st1 st4 st5">ll</tspan><tspan x="27.4" y="0" class="st1 st4 st5"> </tspan><tspan x="31.9" y="0" class="st1 st4 st5">pea</tspan><tspan x="58.54" y="0" class="st1 st4 st5">ks</tspan></text>
<text transform="matrix(1 0 0 1 531.834 444.2402)"><tspan x="0" y="0" class="st1 st4 st5">M</tspan><tspan x="13.36" y="0" class="st1 st4 st5">ACS</tspan><tspan x="46.11" y="0" class="st1 st4 st5">2</tspan></text>
<path class="st18" d="M252.08,408.87c0-5.67,4.59-10.26,10.26-10.26h160.45c5.67,0,10.26,4.59,10.26,10.26v41.03
	c0,5.67-4.59,10.26-10.26,10.26H262.33c-5.67,0-10.26-4.59-10.26-10.26V408.87z"/>
<path class="st19" d="M252.08,408.87c0-5.67,4.59-10.26,10.26-10.26h160.45c5.67,0,10.26,4.59,10.26,10.26v41.03
	c0,5.67-4.59,10.26-10.26,10.26H262.33c-5.67,0-10.26-4.59-10.26-10.26V408.87z"/>
<text transform="matrix(1 0 0 1 282.9341 434.8799)"><tspan x="0" y="0" class="st1 st4 st5">E</tspan><tspan x="10.64" y="0" class="st1 st4 st5">x</tspan><tspan x="18.64" y="0" class="st1 st4 st5">t</tspan><tspan x="23.13" y="0" class="st1 st4 st5">r</tspan><tspan x="28.49" y="0" class="st1 st4 st5">a</tspan><tspan x="37.38" y="0" class="st1 st4 st5">c</tspan><tspan x="45.38" y="0" class="st1 st4 st5">t </tspan><tspan x="54.36" y="0" class="st1 st4 st5">R</tspan><tspan x="65.87" y="0" class="st1 st4 st5">2</tspan><tspan x="74.75" y="0" class="st1 st4 st5"> </tspan><tspan x="79.24" y="0" class="st1 st4 st5">r</tspan><tspan x="84.6" y="0" class="st1 st4 st5">ead</tspan><tspan x="111.25" y="0" class="st1 st4 st5">s</tspan></text>
<path class="st20" d="M714.14,347.32c0-5.67,4.59-10.26,10.26-10.26h160.45c5.67,0,10.26,4.59,10.26,10.26v41.03
	c0,5.67-4.59,10.26-10.26,10.26H724.39c-5.67,0-10.26-4.59-10.26-10.26V347.32z"/>
<text transform="matrix(1 0 0 1 735.5098 363.6006)"><tspan x="0" y="0" class="st4 st5">Di</tspan><tspan x="15.01" y="0" class="st4 st5">f</tspan><tspan x="19.23" y="0" class="st4 st5">f</tspan><tspan x="23.73" y="0" class="st4 st5">e</tspan><tspan x="32.61" y="0" class="st4 st5">r</tspan><tspan x="37.97" y="0" class="st4 st5">en</tspan><tspan x="55.74" y="0" class="st4 st5">t</tspan><tspan x="60.23" y="0" class="st4 st5">i</tspan><tspan x="63.74" y="0" class="st4 st5">a</tspan><tspan x="72.62" y="0" class="st4 st5">l</tspan><tspan x="76.12" y="0" class="st4 st5"> </tspan><tspan x="80.62" y="0" class="st4 st5">ana</tspan><tspan x="107.27" y="0" class="st4 st5">l</tspan><tspan x="110.77" y="0" class="st4 st5">ys</tspan><tspan x="126.77" y="0" class="st4 st5">i</tspan><tspan x="130.28" y="0" class="st4 st5">s</tspan></text>
<text transform="matrix(1 0 0 1 781.1191 382.5605)"><tspan x="0" y="0" class="st4 st5">edge</tspan><tspan x="35.53" y="0" class="st4 st5">R</tspan></text>
<circle class="st21" cx="804.62" cy="105.1" r="70.26"/>
<text transform="matrix(1 0 0 1 770.3691 100.7998)"><tspan x="0" y="0" class="st4 st5">S</tspan><tspan x="10.64" y="0" class="st4 st5">u</tspan><tspan x="19.52" y="0" class="st4 st5">mm</tspan><tspan x="46.27" y="0" class="st4 st5">a</tspan><tspan x="55.16" y="0" class="st4 st5">r</tspan><tspan x="60.53" y="0" class="st4 st5">y</tspan></text>
<text transform="matrix(1 0 0 1 775.7441 120)"><tspan x="0" y="0" class="st4 st5">M</tspan><tspan x="13.36" y="0" class="st4 st5">u</tspan><tspan x="22.24" y="0" class="st4 st5">l</tspan><tspan x="25.75" y="0" class="st4 st5">t</tspan><tspan x="30.24" y="0" class="st4 st5">i</tspan><tspan x="33.75" y="0" class="st4 st5">Q</tspan><tspan x="46.24" y="0" class="st4 st5">C</tspan></text>
<line class="st22" x1="273.42" y1="120.77" x2="273.42" y2="178.35"/>
<path class="st23" d="M334.97,178.35l-4-6l12,6l-12,6L334.97,178.35z M212.39,178.35l4,6l-12-6l12-6L212.39,178.35z M212.39,176.35
	h122.58v4H212.39V176.35z"/>
<path class="st8" d="M726.72,107.47l-2.04,6.92l9.68-9.29l-13.24-2.17L726.72,107.47z M706.58,115.81l15.28-4.74l-1.19-3.82
	l-15.28,4.74L706.58,115.81z M679.84,124.11l15.28-4.74l-1.19-3.82l-15.28,4.74L679.84,124.11z M653.09,132.41l15.28-4.74
	l-1.19-3.82l-15.28,4.74L653.09,132.41z M626.35,140.71l15.28-4.74l-1.19-3.82l-15.28,4.74L626.35,140.71z M599.61,149.01
	l15.28-4.74l-1.19-3.82l-15.28,4.74L599.61,149.01z M572.87,157.31l15.28-4.74l-1.19-3.82l-15.28,4.74L572.87,157.31z M546.13,165.6
	l15.28-4.74l-1.19-3.82l-15.28,4.74L546.13,165.6z M519.38,173.9l15.28-4.74l-1.19-3.82l-15.28,4.74L519.38,173.9z M492.64,182.2
	l15.28-4.74l-1.19-3.82l-15.28,4.74L492.64,182.2z"/>
<path class="st23" d="M118.24,325.28l6-4l-6,12l-6-12L118.24,325.28z M120.24,308.23v17.04l-4,0v-17.04H120.24z"/>
<line class="st22" x1="205.5" y1="304.84" x2="205.5" y2="430.34"/>
<line class="st22" x1="189.85" y1="368.05" x2="205.95" y2="368.05"/>
<path class="st23" d="M244.08,306.29l-4-6l12,6l-12,6L244.08,306.29z M205.5,304.29l38.58,0v4l-38.58,0V304.29z"/>
<path class="st23" d="M460.23,305.79l-4-6l12,6l-12,6L460.23,305.79z M441.11,303.79l19.12,0v4l-19.12,0V303.79z"/>
<path class="st23" d="M461.6,430.34l-4-6l12,6l-12,6L461.6,430.34z M439.34,428.34l22.26,0v4l-22.26,0V428.34z"/>
<line class="st22" x1="690.44" y1="304.84" x2="690.44" y2="430.84"/>
<line class="st22" x1="647.3" y1="306.29" x2="690.44" y2="306.29"/>
<path class="st23" d="M705.54,367.84l-4-6l12,6l-12,6L705.54,367.84z M690.9,365.84h14.65v4H690.9V365.84z"/>
<line class="st22" x1="647.3" y1="429.39" x2="690.44" y2="429.39"/>
<path class="st24" d="M804.62,294.98l6,4l-6-12l-6,12L804.62,294.98z M806.62,337.07l0-42.08h-4l0,42.08H806.62z"/>
<path class="st16" d="M804.62,183.35l6,4l-6-12l-6,12L804.62,183.35z M806.62,225.44l0-42.08h-4l0,42.08H806.62z"/>
<path class="st8" d="M118.24,232.96l6-4l-6,12l-6-12L118.24,232.96z M120.24,215.92l0,17.04h-4l0-17.04H120.24z"/>
<path class="st8" d="M748.13,158.98l-0.25,7.21l7.06-11.41l-13.36,1.2L748.13,158.98z M727.17,174.27l13.62-8.4l-2.1-3.4l-13.62,8.4
	L727.17,174.27z M703.34,188.98l13.62-8.4l-2.1-3.4l-13.62,8.4L703.34,188.98z M679.52,203.68l13.62-8.4l-2.1-3.4l-13.62,8.4
	L679.52,203.68z M655.69,218.39l13.62-8.4l-2.1-3.4l-13.62,8.4L655.69,218.39z M631.86,233.1l13.62-8.4l-2.1-3.4l-13.62,8.4
	L631.86,233.1z M608.04,247.8l13.62-8.4l-2.1-3.4l-13.62,8.4L608.04,247.8z M584.21,262.51l13.62-8.4l-2.1-3.4l-13.62,8.4
	L584.21,262.51z M560.38,277.22l13.62-8.4l-2.1-3.4l-13.62,8.4L560.38,277.22z"/>
<path class="st23" d="M242.97,429.39l-4-6l12,6l-12,6L242.97,429.39z M204.39,427.39h38.58v4h-38.58V427.39z"/>
</svg>
