<svg width="4262" height="1939" xmlns="http://www.w3.org/2000/svg" xmlns:xlink="http://www.w3.org/1999/xlink" xml:space="preserve" overflow="hidden"><defs><clipPath id="clip0"><rect x="73" y="210" width="4262" height="1939"/></clipPath></defs><g clip-path="url(#clip0)" transform="translate(-73 -210)"><path d="M2469.5 944.67C2469.5 860.076 2538.08 791.5 2622.67 791.5L3235.33 791.5C3319.92 791.5 3388.5 860.076 3388.5 944.67L3388.5 1977.33C3388.5 2061.92 3319.92 2130.5 3235.33 2130.5L2622.67 2130.5C2538.08 2130.5 2469.5 2061.92 2469.5 1977.33Z" stroke="#2F528F" stroke-width="4.58333" stroke-linecap="butt" stroke-linejoin="miter" stroke-miterlimit="8" stroke-opacity="1" fill="#00B0F0" fill-rule="evenodd" fill-opacity="0.301961"/><rect x="712.5" y="1196.5" width="1665" height="343" stroke="#70AD47" stroke-width="4.58333" stroke-linecap="butt" stroke-linejoin="miter" stroke-miterlimit="8" stroke-opacity="1" fill="#FFF2CC" fill-opacity="1"/><text fill="#000000" fill-opacity="1" font-family="Helvetica,Helvetica_MSFontService,sans-serif" font-style="normal" font-variant="normal" font-weight="400" font-stretch="normal" font-size="55" text-anchor="start" direction="ltr" writing-mode="lr-tb" unicode-bidi="normal" text-decoration="none" transform="matrix(1 0 0 1 744.805 1508)">ATAC R2 reads</text><path d="M706.5 792.493 1208.27 786.5 1255.88 892.398 2372.5 880.004 2372.5 1167.5 706.5 1167.5 706.5 792.493Z" stroke="#70AD47" stroke-width="4.58333" stroke-linecap="butt" stroke-linejoin="miter" stroke-miterlimit="8" stroke-opacity="1" fill="#E2F0D9" fill-rule="evenodd" fill-opacity="1"/><text fill="#000000" fill-opacity="1" font-family="Helvetica,Helvetica_MSFontService,sans-serif" font-style="normal" font-variant="normal" font-weight="400" font-stretch="normal" font-size="55" text-anchor="start" direction="ltr" writing-mode="lr-tb" unicode-bidi="normal" text-decoration="none" transform="matrix(1 0 0 1 739.343 853)">Paired<tspan fill="#000000" fill-opacity="1" font-family="Helvetica,Helvetica_MSFontService,sans-serif" font-style="normal" font-variant="normal" font-weight="400" font-stretch="normal" font-size="55" text-anchor="start" direction="ltr" writing-mode="lr-tb" unicode-bidi="normal" text-decoration="none" x="158.125" y="0">-</tspan><tspan fill="#000000" fill-opacity="1" font-family="Helvetica,Helvetica_MSFontService,sans-serif" font-style="normal" font-variant="normal" font-weight="400" font-stretch="normal" font-size="55" text-anchor="start" direction="ltr" writing-mode="lr-tb" unicode-bidi="normal" text-decoration="none" x="176.458" y="0">end reads</tspan></text><path d="M1.42649-9.05499 55.7565-0.496035 52.9035 17.614-1.42649 9.05499ZM73.8664 2.35695 128.196 10.9159 125.343 29.0259 71.0135 20.4669ZM146.306 13.7689 200.636 22.3279 197.783 40.4378 143.453 31.8789ZM218.746 25.1808 273.076 33.7398 270.223 51.8498 215.893 43.2908ZM291.186 36.5928 345.516 45.1517 342.663 63.2617 288.333 54.7028ZM363.626 48.0047 417.956 56.5637 415.103 74.6737 360.773 66.1147ZM436.066 59.4167 490.396 67.9756 487.543 86.0856 433.213 77.5267ZM508.506 70.8286 562.836 79.3876 559.983 97.4976 505.653 88.9386ZM580.946 82.2406 635.276 90.7995 632.423 108.909 578.093 100.351ZM653.386 93.6525 707.716 102.211 704.863 120.321 650.533 111.762ZM725.826 105.064 780.156 113.623 777.303 131.733 722.973 123.174ZM798.266 116.476 852.596 125.035 849.743 143.145 795.413 134.586ZM870.706 127.888 925.036 136.447 922.183 154.557 867.853 145.998ZM943.146 139.3 997.476 147.859 994.623 165.969 940.293 157.41ZM1015.59 150.712 1069.92 159.271 1067.06 177.381 1012.73 168.822ZM1088.03 162.124 1142.36 170.683 1139.5 188.793 1085.17 180.234ZM1160.47 173.536 1214.8 182.095 1211.94 200.205 1157.61 191.646ZM1232.91 184.948 1287.24 193.507 1284.38 211.617 1230.05 203.058ZM1305.35 196.36 1359.68 204.919 1356.82 223.029 1302.49 214.47ZM1377.79 207.772 1432.12 216.331 1429.26 234.441 1374.93 225.882ZM1450.23 219.184 1504.56 227.743 1501.7 245.853 1447.37 237.294ZM1522.67 230.596 1577 239.155 1574.14 257.265 1519.81 248.706ZM1595.11 242.008 1649.44 250.567 1646.58 268.677 1592.25 260.118ZM1667.55 253.42 1721.88 261.979 1719.02 280.089 1664.69 271.53ZM1739.99 264.832 1794.32 273.391 1791.46 291.501 1737.13 282.942ZM1812.43 276.244 1866.76 284.803 1863.9 302.913 1809.57 294.354ZM1884.86 287.656 1939.19 296.215 1936.34 314.324 1882.01 305.766ZM1957.3 299.067 2011.63 307.626 2008.78 325.736 1954.45 317.177ZM2012.25 317.003 1998.42 286.985 2048.47 322.709 1989.86 341.315Z" fill="#8FAADC" fill-rule="nonzero" fill-opacity="1" transform="matrix(1 0 0 -1 1938 1221.71)"/><path d="M743.5 378.5C743.5 291.791 813.567 221.5 900 221.5 986.432 221.5 1056.5 291.791 1056.5 378.5 1056.5 465.209 986.432 535.5 900 535.5 813.567 535.5 743.5 465.209 743.5 378.5Z" stroke="#385723" stroke-width="19.4792" stroke-linecap="butt" stroke-linejoin="round" stroke-miterlimit="10" stroke-opacity="1" fill="none" fill-rule="evenodd"/><text fill="#000000" fill-opacity="1" font-family="Helvetica,Helvetica_MSFontService,sans-serif" font-style="normal" font-variant="normal" font-weight="400" font-stretch="normal" font-size="55" text-anchor="start" direction="ltr" writing-mode="lr-tb" unicode-bidi="normal" text-decoration="none" transform="matrix(1 0 0 1 840.102 396)">fastq</text><path d="M1174 561.5C1174 540.789 1190.79 524 1211.5 524L1649.5 524C1670.21 524 1687 540.789 1687 561.5L1687 711.499C1687 732.21 1670.21 749 1649.5 749L1211.5 749C1190.79 749 1174 732.21 1174 711.499Z" stroke="#2F528F" stroke-width="18.3333" stroke-linecap="butt" stroke-linejoin="miter" stroke-miterlimit="8" stroke-opacity="1" fill="none" fill-rule="evenodd"/><text fill="#000000" fill-opacity="1" font-family="Helvetica,Helvetica_MSFontService,sans-serif" font-style="normal" font-variant="normal" font-weight="400" font-stretch="normal" font-size="55" text-anchor="start" direction="ltr" writing-mode="lr-tb" unicode-bidi="normal" text-decoration="none" transform="matrix(1 0 0 1 1255.17 622)">Quality control<tspan fill="#000000" fill-opacity="1" font-family="Helvetica,Helvetica_MSFontService,sans-serif" font-style="normal" font-variant="normal" font-weight="400" font-stretch="normal" font-size="55" text-anchor="start" direction="ltr" writing-mode="lr-tb" unicode-bidi="normal" text-decoration="none" x="89.65" y="66">fastQC</tspan></text><path d="M82.9998 561.5C82.9998 540.789 99.7894 524 120.5 524L558.5 524C579.211 524 596 540.789 596 561.5L596 711.499C596 732.21 579.211 749 558.5 749L120.5 749C99.7894 749 82.9998 732.21 82.9998 711.499Z" stroke="#00B0F0" stroke-width="18.3333" stroke-linecap="butt" stroke-linejoin="miter" stroke-miterlimit="8" stroke-opacity="1" fill="none" fill-rule="evenodd"/><text fill="#000000" fill-opacity="1" font-family="Helvetica,Helvetica_MSFontService,sans-serif" font-style="normal" font-variant="normal" font-weight="400" font-stretch="normal" font-size="55" text-anchor="start" direction="ltr" writing-mode="lr-tb" unicode-bidi="normal" text-decoration="none" transform="matrix(1 0 0 1 208.433 622)">Trim reads<tspan fill="#000000" fill-opacity="1" font-family="Helvetica,Helvetica_MSFontService,sans-serif" font-style="normal" font-variant="normal" font-weight="400" font-stretch="normal" font-size="55" text-anchor="start" direction="ltr" writing-mode="lr-tb" unicode-bidi="normal" text-decoration="none" x="26.0562" y="66">cutadapt</tspan></text><path d="M84.9999 907.334C84.9999 886.715 101.715 870 122.334 870L560.666 870C581.285 870 598 886.715 598 907.334L598 1056.67C598 1077.29 581.285 1094 560.666 1094L122.334 1094C101.715 1094 84.9999 1077.29 84.9999 1056.67Z" stroke="#5B9BD5" stroke-width="18.3333" stroke-linecap="butt" stroke-linejoin="miter" stroke-miterlimit="8" stroke-opacity="1" fill="none" fill-rule="evenodd"/><text fill="#000000" fill-opacity="1" font-family="Helvetica,Helvetica_MSFontService,sans-serif" font-style="normal" font-variant="normal" font-weight="400" font-stretch="normal" font-size="55" text-anchor="start" direction="ltr" writing-mode="lr-tb" unicode-bidi="normal" text-decoration="none" transform="matrix(1 0 0 1 211.967 967)">Map reads<tspan fill="#000000" fill-opacity="1" font-family="Helvetica,Helvetica_MSFontService,sans-serif" font-style="normal" font-variant="normal" font-weight="400" font-stretch="normal" font-size="55" text-anchor="start" direction="ltr" writing-mode="lr-tb" unicode-bidi="normal" text-decoration="none" x="10.5875" y="66">bwa mem</tspan></text><path d="M82.9998 1258.5C82.9998 1237.79 99.7894 1221 120.5 1221L558.5 1221C579.211 1221 596 1237.79 596 1258.5L596 1408.5C596 1429.21 579.211 1446 558.5 1446L120.5 1446C99.7894 1446 82.9998 1429.21 82.9998 1408.5Z" stroke="#0070C0" stroke-width="18.3333" stroke-linecap="butt" stroke-linejoin="miter" stroke-miterlimit="8" stroke-opacity="1" fill="none" fill-rule="evenodd"/><text fill="#000000" fill-opacity="1" font-family="Helvetica,Helvetica_MSFontService,sans-serif" font-style="normal" font-variant="normal" font-weight="400" font-stretch="normal" font-size="55" text-anchor="start" direction="ltr" writing-mode="lr-tb" unicode-bidi="normal" text-decoration="none" transform="matrix(1 0 0 1 200.985 1319)">Parse pairs<tspan fill="#000000" fill-opacity="1" font-family="Helvetica,Helvetica_MSFontService,sans-serif" font-style="normal" font-variant="normal" font-weight="400" font-stretch="normal" font-size="55" text-anchor="start" direction="ltr" writing-mode="lr-tb" unicode-bidi="normal" text-decoration="none" x="35.2229" y="66">pairtools</tspan></text><path d="M822.5 946.834C822.5 926.215 839.215 909.5 859.834 909.5L2219.17 909.5C2239.79 909.5 2256.5 926.215 2256.5 946.834L2256.5 1096.17C2256.5 1116.79 2239.79 1133.5 2219.17 1133.5L859.834 1133.5C839.215 1133.5 822.5 1116.79 822.5 1096.17Z" stroke="#548235" stroke-width="4.58333" stroke-linecap="butt" stroke-linejoin="miter" stroke-miterlimit="8" stroke-opacity="1" fill="#A9D18E" fill-rule="evenodd" fill-opacity="1"/><text fill="#C55A11" fill-opacity="1" font-family="Helvetica,Helvetica_MSFontService,sans-serif" font-style="normal" font-variant="normal" font-weight="400" font-stretch="normal" font-size="55" text-anchor="start" direction="ltr" writing-mode="lr-tb" unicode-bidi="normal" text-decoration="none" transform="matrix(1 0 0 1 1411.05 1006)">Filter pairs<tspan fill="#C55A11" fill-opacity="1" font-family="Helvetica,Helvetica_MSFontService,sans-serif" font-style="normal" font-variant="normal" font-weight="400" font-stretch="normal" font-size="55" text-anchor="start" direction="ltr" writing-mode="lr-tb" unicode-bidi="normal" text-decoration="none" x="24.6354" y="66">pairtools</tspan></text><path d="M2595.5 946.834C2595.5 926.215 2612.22 909.5 2632.83 909.5L3200.17 909.5C3220.78 909.5 3237.5 926.215 3237.5 946.834L3237.5 1096.17C3237.5 1116.78 3220.78 1133.5 3200.17 1133.5L2632.83 1133.5C2612.22 1133.5 2595.5 1116.78 2595.5 1096.17Z" stroke="#548235" stroke-width="4.58333" stroke-linecap="butt" stroke-linejoin="miter" stroke-miterlimit="8" stroke-opacity="1" fill="#B4C7E7" fill-rule="evenodd" fill-opacity="1"/><text fill="#FFFFFF" fill-opacity="1" font-family="Helvetica,Helvetica_MSFontService,sans-serif" font-style="normal" font-variant="normal" font-weight="400" font-stretch="normal" font-size="55" text-anchor="start" direction="ltr" writing-mode="lr-tb" unicode-bidi="normal" text-decoration="none" transform="matrix(1 0 0 1 2795.82 1039)">Call loops</text><path d="M3657 1381.5C3657 1360.79 3673.79 1344 3694.5 1344L4279.5 1344C4300.21 1344 4317 1360.79 4317 1381.5L4317 1531.5C4317 1552.21 4300.21 1569 4279.5 1569L3694.5 1569C3673.79 1569 3657 1552.21 3657 1531.5Z" stroke="#FFC000" stroke-width="18.3333" stroke-linecap="butt" stroke-linejoin="round" stroke-miterlimit="10" stroke-opacity="1" fill="none" fill-rule="evenodd"/><text fill="#000000" fill-opacity="1" font-family="Helvetica,Helvetica_MSFontService,sans-serif" font-style="normal" font-variant="normal" font-weight="400" font-stretch="normal" font-size="55" text-anchor="start" direction="ltr" writing-mode="lr-tb" unicode-bidi="normal" text-decoration="none" transform="matrix(1 0 0 1 3749.14 1441)">Differential analysis<tspan fill="#000000" fill-opacity="1" font-family="Helvetica,Helvetica_MSFontService,sans-serif" font-style="normal" font-variant="normal" font-weight="400" font-stretch="normal" font-size="55" text-anchor="start" direction="ltr" writing-mode="lr-tb" unicode-bidi="normal" text-decoration="none" x="156.979" y="66">edgeR</tspan></text><path d="M900 535 900 642.643" stroke="#4472C4" stroke-width="18.3333" stroke-linecap="butt" stroke-linejoin="miter" stroke-miterlimit="8" stroke-opacity="1" fill="none" fill-rule="evenodd"/><path d="M683.667 632.833 1115.69 632.834 1115.69 651.167 683.667 651.167ZM683.667 642 702 669.5 647 642 702 614.5ZM1115.69 642 1097.36 614.5 1152.36 642 1097.36 669.5Z" fill="#4472C4" fill-rule="nonzero" fill-opacity="1"/><path d="M1687.03 627.833 1760.36 628.044 1760.31 646.378 1686.97 646.167ZM1815.36 628.203 1888.69 628.414 1888.64 646.747 1815.31 646.536ZM1943.69 628.572 2017.03 628.783 2016.97 647.116 1943.64 646.905ZM2072.02 628.941 2145.36 629.152 2145.31 647.485 2071.97 647.274ZM2200.36 629.31 2273.69 629.521 2273.64 647.855 2200.3 647.644ZM2328.69 629.68 2402.02 629.891 2401.97 648.224 2328.64 648.013ZM2457.02 630.049 2530.36 630.26 2530.3 648.593 2456.97 648.382ZM2585.36 630.418 2658.69 630.629 2658.64 648.963 2585.3 648.751ZM2713.69 630.788 2787.02 630.999 2786.97 649.332 2713.64 649.121ZM2842.02 631.157 2915.35 631.368 2915.3 649.701 2841.97 649.49ZM2970.35 631.526 3043.69 631.737 3043.63 650.07 2970.3 649.859ZM3098.69 631.895 3172.02 632.106 3171.97 650.44 3098.63 650.229ZM3227.02 632.265 3300.35 632.476 3300.3 650.809 3226.97 650.598ZM3355.35 632.634 3428.69 632.845 3428.63 651.178 3355.3 650.967ZM3483.69 633.003 3557.02 633.214 3556.97 651.547 3483.63 651.336ZM3612.02 633.372 3685.35 633.583 3685.3 651.917 3611.97 651.706ZM3694.05 642.775 3675.79 615.223 3730.71 642.881 3675.64 670.222Z" fill="#8FAADC" fill-rule="nonzero" fill-opacity="1"/><path d="M343.167 1112 343.167 1166.65 324.834 1166.65 324.833 1112ZM334 1166.65 361.5 1148.32 334 1203.32 306.5 1148.32Z" fill="#4472C4" fill-rule="nonzero" fill-opacity="1"/><path d="M652 1019 652 1901.98" stroke="#4472C4" stroke-width="18.3333" stroke-linecap="butt" stroke-linejoin="miter" stroke-miterlimit="8" stroke-opacity="1" fill="none" fill-rule="evenodd"/><path d="M596 1334 657.983 1334" stroke="#4472C4" stroke-width="18.3333" stroke-linecap="butt" stroke-linejoin="miter" stroke-miterlimit="8" stroke-opacity="1" fill="none" fill-rule="evenodd"/><path d="M652 1011.83 785.193 1011.83 785.193 1030.17 652 1030.17ZM785.193 1021 766.86 993.5 821.86 1021 766.859 1048.5Z" fill="#4472C4" fill-rule="nonzero" fill-opacity="1"/><path d="M3466.02 1116.83 3620.42 1117.21 3620.37 1135.54 3465.98 1135.17ZM3620.4 1126.37 3602.13 1098.83 3657.06 1126.46 3602 1153.83Z" fill="#4472C4" fill-rule="nonzero" fill-opacity="1"/><path d="M2261.98 1014.05 2572.92 1281.72 2560.96 1295.61 2250.02 1027.95ZM2566.94 1288.67 2570.98 1255.86 2594.73 1312.59 2535.1 1297.55Z" fill="#4472C4" fill-rule="nonzero" fill-opacity="1"/><path d="M2263 1011.83 2558.26 1011.83 2558.26 1030.17 2263 1030.17ZM2558.26 1021 2539.93 993.5 2594.93 1021 2539.93 1048.5Z" fill="#4472C4" fill-rule="nonzero" fill-opacity="1"/><path d="M9.16667-3.12814e-05 9.1669 69.0888-9.16643 69.0889-9.16667 3.12814e-05ZM0.000235767 69.0889 27.5002 50.7554 0.000360892 105.756-27.4998 50.7556Z" fill="#F4B183" fill-rule="nonzero" fill-opacity="1" transform="matrix(1 0 0 -1 3987 1343.76)"/><path d="M9.16667-2.87052e-05 9.16691 78.58-9.16642 78.58-9.16667 2.87052e-05ZM0.000246072 78.58 27.5002 60.2466 0.000360892 115.247-27.4998 60.2467Z" fill="#C55A11" fill-rule="nonzero" fill-opacity="1" transform="matrix(1 0 0 -1 3987 1014.25)"/><path d="M343.167 763 343.167 817.649 324.834 817.649 324.833 763ZM334 817.649 361.5 799.316 334 854.316 306.5 799.316Z" fill="#8FAADC" fill-rule="nonzero" fill-opacity="1"/><path d="M3.00893-8.65876 72.279 15.4127 66.2611 32.7302-3.00893 8.65876ZM124.232 33.4663 193.502 57.5378 187.484 74.8553 118.214 50.7838ZM245.454 75.5914 314.724 99.6629 308.706 116.98 239.436 92.9089ZM366.677 117.716 435.947 141.788 429.929 159.105 360.659 135.034ZM487.899 159.842 537.18 176.966 531.162 194.284 481.882 177.159ZM534.17 185.625 525.879 153.631 568.805 197.661 507.826 205.583Z" fill="#8FAADC" fill-rule="nonzero" fill-opacity="1" transform="matrix(1 0 0 -1 3237 1021.66)"/><path d="M828.5 1259C828.5 1238.29 845.289 1221.5 866 1221.5L1450 1221.5C1470.71 1221.5 1487.5 1238.29 1487.5 1259L1487.5 1409C1487.5 1429.71 1470.71 1446.5 1450 1446.5L866 1446.5C845.289 1446.5 828.5 1429.71 828.5 1409Z" stroke="#FFC000" stroke-width="4.58333" stroke-linecap="butt" stroke-linejoin="miter" stroke-miterlimit="8" stroke-opacity="1" fill="#7F6000" fill-rule="evenodd" fill-opacity="1"/><text fill="#FFFFFF" fill-opacity="1" font-family="Helvetica,Helvetica_MSFontService,sans-serif" font-style="normal" font-variant="normal" font-weight="400" font-stretch="normal" font-size="55" text-anchor="start" direction="ltr" writing-mode="lr-tb" unicode-bidi="normal" text-decoration="none" transform="matrix(1 0 0 1 952.969 1352)">Extract R2 reads</text><path d="M1510 1324.83 1583.67 1324.83 1583.67 1343.17 1510 1343.17ZM1583.67 1334 1565.34 1306.5 1620.34 1334 1565.34 1361.5Z" fill="#4472C4" fill-rule="nonzero" fill-opacity="1"/><path d="M2263.93 1016.4 2584.24 1567.87 2568.38 1577.07 2248.07 1025.6ZM2576.31 1572.47 2590.88 1542.81 2594.73 1604.18 2543.32 1570.43Z" fill="#4472C4" fill-rule="nonzero" fill-opacity="1"/><path d="M6.23965-6.71525 315.498 280.64 303.019 294.071-6.23965 6.71525ZM309.259 287.355 314.547 254.73 336.12 312.314 277.109 295.022Z" fill="#4472C4" fill-rule="nonzero" fill-opacity="1" transform="matrix(1 0 0 -1 2259 1333.31)"/><path d="M658 1324.83 791.193 1324.83 791.193 1343.17 658 1343.17ZM791.193 1334 772.86 1306.5 827.86 1334 772.86 1361.5Z" fill="#4472C4" fill-rule="nonzero" fill-opacity="1"/><path d="M706.5 1755.5 2372.5 1755.5 2372.43 2046.12 1302.14 2045.06 1246.32 2129.67 706.5 2130.5 706.5 1755.5Z" stroke="#70AD47" stroke-width="4.58333" stroke-linecap="butt" stroke-linejoin="miter" stroke-miterlimit="8" stroke-opacity="1" fill="#DEEBF7" fill-rule="evenodd" fill-opacity="1"/><text fill="#000000" fill-opacity="1" font-family="Helvetica,Helvetica_MSFontService,sans-serif" font-style="normal" font-variant="normal" font-weight="400" font-stretch="normal" font-size="55" text-anchor="start" direction="ltr" writing-mode="lr-tb" unicode-bidi="normal" text-decoration="none" transform="matrix(1 0 0 1 739.343 2099)">Fragment R1 reads</text><path d="M1627.5 1821.83C1627.5 1801.21 1644.22 1784.5 1664.83 1784.5L2232.17 1784.5C2252.78 1784.5 2269.5 1801.21 2269.5 1821.83L2269.5 1971.17C2269.5 1991.78 2252.78 2008.5 2232.17 2008.5L1664.83 2008.5C1644.22 2008.5 1627.5 1991.78 1627.5 1971.17Z" stroke="#FFC000" stroke-width="4.58333" stroke-linecap="butt" stroke-linejoin="miter" stroke-miterlimit="8" stroke-opacity="1" fill="#1F4E79" fill-rule="evenodd" fill-opacity="1"/><text fill="#FFFFFF" fill-opacity="1" font-family="Helvetica,Helvetica_MSFontService,sans-serif" font-style="normal" font-variant="normal" font-weight="400" font-stretch="normal" font-size="55" text-anchor="start" direction="ltr" writing-mode="lr-tb" unicode-bidi="normal" text-decoration="none" transform="matrix(1 0 0 1 1820.25 1881)">Call peaks<tspan fill="#FFFFFF" fill-opacity="1" font-family="Helvetica,Helvetica_MSFontService,sans-serif" font-style="normal" font-variant="normal" font-weight="400" font-stretch="normal" font-size="55" text-anchor="start" direction="ltr" writing-mode="lr-tb" unicode-bidi="normal" text-decoration="none" x="33.2291" y="66">MACS2</tspan></text><path d="M828.5 1821.83C828.5 1801.21 845.215 1784.5 865.834 1784.5L1450.17 1784.5C1470.78 1784.5 1487.5 1801.21 1487.5 1821.83L1487.5 1971.17C1487.5 1991.78 1470.78 2008.5 1450.17 2008.5L865.834 2008.5C845.215 2008.5 828.5 1991.78 828.5 1971.17Z" stroke="#FFC000" stroke-width="4.58333" stroke-linecap="butt" stroke-linejoin="miter" stroke-miterlimit="8" stroke-opacity="1" fill="#1F4E79" fill-rule="evenodd" fill-opacity="1"/><text fill="#FFFFFF" fill-opacity="1" font-family="Helvetica,Helvetica_MSFontService,sans-serif" font-style="normal" font-variant="normal" font-weight="400" font-stretch="normal" font-size="55" text-anchor="start" direction="ltr" writing-mode="lr-tb" unicode-bidi="normal" text-decoration="none" transform="matrix(1 0 0 1 952.969 1914)">Extract R1 reads</text><path d="M1510 1889.83 1583.67 1889.83 1583.67 1908.17 1510 1908.17ZM1583.67 1899 1565.34 1871.5 1620.34 1899 1565.34 1926.5Z" fill="#4472C4" fill-rule="nonzero" fill-opacity="1"/><path d="M2269 1886.83 2564.24 1886.83 2564.24 1905.17 2269 1905.17ZM2564.24 1896 2545.91 1868.5 2600.91 1896 2545.91 1923.5Z" fill="#4472C4" fill-rule="nonzero" fill-opacity="1"/><path d="M658 1889.83 791.193 1889.83 791.193 1908.17 658 1908.17ZM791.193 1899 772.86 1871.5 827.86 1899 772.86 1926.5Z" fill="#4472C4" fill-rule="nonzero" fill-opacity="1"/><path d="M8.11411-4.26485 317.309 583.995 301.081 592.524-8.11411 4.26485ZM309.194 588.259 325.007 559.236 326.254 620.715 276.322 584.825Z" fill="#4472C4" fill-rule="nonzero" fill-opacity="1" transform="matrix(1 0 0 -1 2269 1641.71)"/><path d="M3.65087-8.40827 54.1005 13.497 46.7987 30.3135-3.65087 8.40827ZM70.917 20.7987 121.367 42.7039 114.065 59.5204 63.6153 37.6152ZM138.183 50.0056 188.633 71.9109 181.331 88.7274 130.881 66.8222ZM205.449 79.2126 255.899 101.118 248.597 117.934 198.147 96.0291ZM272.715 108.42 323.165 130.325 315.863 147.141 265.414 125.236ZM339.982 137.627 390.431 159.532 383.129 176.348 332.68 154.443ZM407.248 166.833 457.697 188.739 450.395 205.555 399.946 183.65ZM474.514 196.04 524.963 217.946 517.662 234.762 467.212 212.857ZM541.78 225.247 592.229 247.153 584.928 263.969 534.478 242.064ZM609.046 254.454 659.496 276.36 652.194 293.176 601.744 271.271ZM676.312 283.661 726.762 305.566 719.46 322.383 669.01 300.478ZM743.578 312.868 794.028 334.773 786.726 351.59 736.277 329.685ZM810.844 342.075 861.294 363.98 853.992 380.797 803.543 358.892ZM878.111 371.282 928.56 393.187 921.258 410.004 870.809 388.099ZM945.377 400.489 995.826 422.394 988.524 439.211 938.075 417.306ZM1012.64 429.696 1063.09 451.601 1055.79 468.418 1005.34 446.513ZM1079.91 458.903 1130.36 480.808 1123.06 497.625 1072.61 475.72ZM1147.17 488.11 1197.62 510.015 1190.32 526.832 1139.87 504.927ZM1214.44 517.317 1264.89 539.222 1257.59 556.039 1207.14 534.134ZM1281.71 546.524 1332.16 568.429 1324.85 585.246 1274.41 563.341ZM1348.97 575.731 1399.42 597.636 1392.12 614.453 1341.67 592.547ZM1416.24 604.938 1466.69 626.843 1459.39 643.66 1408.94 621.754ZM1483.51 634.145 1533.96 656.05 1526.65 672.867 1476.2 650.961ZM1550.77 663.352 1601.22 685.257 1593.92 702.074 1543.47 680.168ZM1618.04 692.559 1668.49 714.464 1661.19 731.28 1610.74 709.375ZM1685.3 721.766 1735.75 743.671 1728.45 760.487 1678 738.582ZM1752.57 750.973 1803.02 772.878 1795.72 789.694 1745.27 767.789ZM1819.84 780.18 1870.29 802.085 1862.98 818.901 1812.53 796.996ZM1887.1 809.387 1937.55 831.292 1930.25 848.108 1879.8 826.203ZM1954.37 838.593 2004.82 860.499 1997.52 877.315 1947.07 855.41ZM2004.97 870.557 1999.1 838.03 2038.6 885.16 1977.2 888.48Z" fill="#8FAADC" fill-rule="nonzero" fill-opacity="1" transform="matrix(1 0 0 -1 1948 1784.16)"/><path d="M822.5 1589.17C822.5 1574.44 834.44 1562.5 849.168 1562.5L2242.83 1562.5C2257.56 1562.5 2269.5 1574.44 2269.5 1589.17L2269.5 1695.83C2269.5 1710.56 2257.56 1722.5 2242.83 1722.5L849.168 1722.5C834.44 1722.5 822.5 1710.56 822.5 1695.83Z" stroke="#385723" stroke-width="19.4792" stroke-linecap="butt" stroke-linejoin="miter" stroke-miterlimit="8" stroke-dasharray="155.833 58.4375" stroke-opacity="1" fill="#FFFFFF" fill-rule="evenodd" fill-opacity="1"/><text fill="#000000" fill-opacity="1" font-family="Helvetica,Helvetica_MSFontService,sans-serif" font-style="normal" font-variant="normal" font-weight="400" font-stretch="normal" font-size="55" text-anchor="start" direction="ltr" writing-mode="lr-tb" unicode-bidi="normal" text-decoration="none" transform="matrix(1 0 0 1 1240.83 1660)">Predefined anchor peaks</text><path d="M1617.5 1259C1617.5 1238.29 1634.29 1221.5 1655 1221.5L2222 1221.5C2242.71 1221.5 2259.5 1238.29 2259.5 1259L2259.5 1409C2259.5 1429.71 2242.71 1446.5 2222 1446.5L1655 1446.5C1634.29 1446.5 1617.5 1429.71 1617.5 1409Z" stroke="#FFC000" stroke-width="4.58333" stroke-linecap="butt" stroke-linejoin="miter" stroke-miterlimit="8" stroke-opacity="1" fill="#7F6000" fill-rule="evenodd" fill-opacity="1"/><text fill="#FFFFFF" fill-opacity="1" font-family="Helvetica,Helvetica_MSFontService,sans-serif" font-style="normal" font-variant="normal" font-weight="400" font-stretch="normal" font-size="55" text-anchor="start" direction="ltr" writing-mode="lr-tb" unicode-bidi="normal" text-decoration="none" transform="matrix(1 0 0 1 1810.38 1319)">Call peaks<tspan fill="#FFFFFF" fill-opacity="1" font-family="Helvetica,Helvetica_MSFontService,sans-serif" font-style="normal" font-variant="normal" font-weight="400" font-stretch="normal" font-size="55" text-anchor="start" direction="ltr" writing-mode="lr-tb" unicode-bidi="normal" text-decoration="none" x="33.2291" y="66">MACS2</tspan></text><path d="M3657 1051.33C3657 1030.72 3673.72 1014 3694.33 1014L4279.67 1014C4300.29 1014 4317 1030.72 4317 1051.33L4317 1200.67C4317 1221.28 4300.29 1238 4279.67 1238L3694.33 1238C3673.72 1238 3657 1221.28 3657 1200.67Z" stroke="#ED7D31" stroke-width="18.3333" stroke-linecap="butt" stroke-linejoin="round" stroke-miterlimit="10" stroke-opacity="1" fill="none" fill-rule="evenodd"/><text fill="#000000" fill-opacity="1" font-family="Helvetica,Helvetica_MSFontService,sans-serif" font-style="normal" font-variant="normal" font-weight="400" font-stretch="normal" font-size="55" text-anchor="start" direction="ltr" writing-mode="lr-tb" unicode-bidi="normal" text-decoration="none" transform="matrix(1 0 0 1 3855.7 1111)">Annotation<tspan fill="#000000" fill-opacity="1" font-family="Helvetica,Helvetica_MSFontService,sans-serif" font-style="normal" font-variant="normal" font-weight="400" font-stretch="normal" font-size="55" text-anchor="start" direction="ltr" writing-mode="lr-tb" unicode-bidi="normal" text-decoration="none" x="-53.2813" y="66">ChIPpeakAnno</tspan></text><path d="M3730 642.5C3730 500.839 3844.84 386 3986.5 386 4128.16 386 4243 500.839 4243 642.5 4243 784.161 4128.16 899 3986.5 899 3844.84 899 3730 784.161 3730 642.5Z" stroke="#C00000" stroke-width="18.3333" stroke-linecap="butt" stroke-linejoin="round" stroke-miterlimit="10" stroke-opacity="1" fill="none" fill-rule="evenodd"/><text fill="#000000" fill-opacity="1" font-family="Helvetica,Helvetica_MSFontService,sans-serif" font-style="normal" font-variant="normal" font-weight="400" font-stretch="normal" font-size="55" text-anchor="start" direction="ltr" writing-mode="lr-tb" unicode-bidi="normal" text-decoration="none" transform="matrix(1 0 0 1 3869.16 627)">Summary<tspan fill="#000000" fill-opacity="1" font-family="Helvetica,Helvetica_MSFontService,sans-serif" font-style="normal" font-variant="normal" font-weight="400" font-stretch="normal" font-size="55" text-anchor="start" direction="ltr" writing-mode="lr-tb" unicode-bidi="normal" text-decoration="none" x="18.3333" y="66">MultiQC</tspan></text><path d="M2595.5 1238.83C2595.5 1218.21 2612.22 1201.5 2632.83 1201.5L3200.17 1201.5C3220.78 1201.5 3237.5 1218.21 3237.5 1238.83L3237.5 1388.17C3237.5 1408.78 3220.78 1425.5 3200.17 1425.5L2632.83 1425.5C2612.22 1425.5 2595.5 1408.78 2595.5 1388.17Z" stroke="#548235" stroke-width="4.58333" stroke-linecap="butt" stroke-linejoin="miter" stroke-miterlimit="8" stroke-opacity="1" fill="#8FAADC" fill-rule="evenodd" fill-opacity="1"/><text fill="#FFFFFF" fill-opacity="1" font-family="Helvetica,Helvetica_MSFontService,sans-serif" font-style="normal" font-variant="normal" font-weight="400" font-stretch="normal" font-size="55" text-anchor="start" direction="ltr" writing-mode="lr-tb" unicode-bidi="normal" text-decoration="none" transform="matrix(1 0 0 1 2792.38 1331)">Call<tspan fill="#FFFFFF" fill-opacity="1" font-family="Helvetica,Helvetica_MSFontService,sans-serif" font-style="normal" font-variant="normal" font-weight="400" font-stretch="normal" font-size="55" text-anchor="start" direction="ltr" writing-mode="lr-tb" unicode-bidi="normal" text-decoration="none" x="109.427" y="0">TADs</tspan></text><path d="M2595.5 1530C2595.5 1509.29 2612.29 1492.5 2633 1492.5L3200 1492.5C3220.71 1492.5 3237.5 1509.29 3237.5 1530L3237.5 1680C3237.5 1700.71 3220.71 1717.5 3200 1717.5L2633 1717.5C2612.29 1717.5 2595.5 1700.71 2595.5 1680Z" stroke="#548235" stroke-width="4.58333" stroke-linecap="butt" stroke-linejoin="miter" stroke-miterlimit="8" stroke-opacity="1" fill="#2F5597" fill-rule="evenodd" fill-opacity="1"/><text fill="#FFFFFF" fill-opacity="1" font-family="Helvetica,Helvetica_MSFontService,sans-serif" font-style="normal" font-variant="normal" font-weight="400" font-stretch="normal" font-size="55" text-anchor="start" direction="ltr" writing-mode="lr-tb" unicode-bidi="normal" text-decoration="none" transform="matrix(1 0 0 1 2816.74 1589)">Call A/B <tspan fill="#FFFFFF" fill-opacity="1" font-family="Helvetica,Helvetica_MSFontService,sans-serif" font-style="normal" font-variant="normal" font-weight="400" font-stretch="normal" font-size="55" text-anchor="start" direction="ltr" writing-mode="lr-tb" unicode-bidi="normal" text-decoration="none" x="-74.7769" y="66">compartments</tspan></text><path d="M2595.5 1821.83C2595.5 1801.21 2612.22 1784.5 2632.83 1784.5L3200.17 1784.5C3220.78 1784.5 3237.5 1801.21 3237.5 1821.83L3237.5 1971.17C3237.5 1991.78 3220.78 2008.5 3200.17 2008.5L2632.83 2008.5C2612.22 2008.5 2595.5 1991.78 2595.5 1971.17Z" stroke="#548235" stroke-width="4.58333" stroke-linecap="butt" stroke-linejoin="miter" stroke-miterlimit="8" stroke-opacity="1" fill="#203864" fill-rule="evenodd" fill-opacity="1"/><text fill="#FFFFFF" fill-opacity="1" font-family="Helvetica,Helvetica_MSFontService,sans-serif" font-style="normal" font-variant="normal" font-weight="400" font-stretch="normal" font-size="55" text-anchor="start" direction="ltr" writing-mode="lr-tb" unicode-bidi="normal" text-decoration="none" transform="matrix(1 0 0 1 2772.9 1914)">Call <tspan fill="#FFFFFF" fill-opacity="1" font-family="Helvetica,Helvetica_MSFontService,sans-serif" font-style="normal" font-variant="normal" font-weight="400" font-stretch="normal" font-size="55" text-anchor="start" direction="ltr" writing-mode="lr-tb" unicode-bidi="normal" text-decoration="none" x="109.427" y="0">HiPeak</tspan></text><path d="M3466 1019 3466 1901.98" stroke="#4472C4" stroke-width="18.3333" stroke-linecap="butt" stroke-linejoin="miter" stroke-miterlimit="8" stroke-opacity="1" fill="none" fill-rule="evenodd"/><path d="M3237 1021 3465.94 1021" stroke="#4472C4" stroke-width="18.3333" stroke-linecap="butt" stroke-linejoin="miter" stroke-miterlimit="8" stroke-opacity="1" fill="none" fill-rule="evenodd"/><path d="M0.0315125-9.16661 154.428-8.63584 154.365 9.69739-0.0315125 9.16661ZM154.396 0.530774 136.157-27.0321 191.063 0.656824 135.968 27.9676Z" fill="#4472C4" fill-rule="nonzero" fill-opacity="1" transform="matrix(1 0 0 -1 3466 1456.66)"/><path d="M3237 1604 3465.94 1604" stroke="#4472C4" stroke-width="18.3333" stroke-linecap="butt" stroke-linejoin="miter" stroke-miterlimit="8" stroke-opacity="1" fill="none" fill-rule="evenodd"/><path d="M3237 1896 3454.95 1896.39" stroke="#4472C4" stroke-width="18.3333" stroke-linecap="butt" stroke-linejoin="miter" stroke-miterlimit="8" stroke-opacity="1" fill="none" fill-rule="evenodd"/><path d="M3237 1313 3475.81 1313" stroke="#4472C4" stroke-width="18.3333" stroke-linecap="butt" stroke-linejoin="miter" stroke-miterlimit="8" stroke-opacity="1" fill="none" fill-rule="evenodd"/><path d="M2266.87 1329.3 2584.18 1860.27 2568.44 1869.68 2251.13 1338.7ZM2576.31 1864.98 2590.51 1835.13 2595.12 1896.45 2543.3 1863.35Z" fill="#4472C4" fill-rule="nonzero" fill-opacity="1"/><path d="M0.0315125-9.16661 154.428-8.63584 154.365 9.69739-0.0315125 9.16661ZM154.396 0.530774 136.157-27.0321 191.063 0.656824 135.968 27.9676Z" fill="#4472C4" fill-rule="nonzero" fill-opacity="1" transform="matrix(1 0 0 -1 3466 1758.66)"/><path d="M3667 1684.5C3667 1663.79 3683.79 1647 3704.5 1647L4288.5 1647C4309.21 1647 4326 1663.79 4326 1684.5L4326 1834.5C4326 1855.21 4309.21 1872 4288.5 1872L3704.5 1872C3683.79 1872 3667 1855.21 3667 1834.5Z" stroke="#7030A0" stroke-width="18.3333" stroke-linecap="butt" stroke-linejoin="round" stroke-miterlimit="10" stroke-opacity="1" fill="none" fill-rule="evenodd"/><text fill="#000000" fill-opacity="1" font-family="Helvetica,Helvetica_MSFontService,sans-serif" font-style="normal" font-variant="normal" font-weight="400" font-stretch="normal" font-size="55" text-anchor="start" direction="ltr" writing-mode="lr-tb" unicode-bidi="normal" text-decoration="none" transform="matrix(1 0 0 1 3858.6 1777)">Visualiztion</text></g></svg>